<svg version="1.1" id="svg1" width="100%" height="371.5333251953125" viewBox="0 0 1419.2933 371.53333" sodipodi:docname="Multex Logo White.eps" xmlns:inkscape="http://www.inkscape.org/namespaces/inkscape" xmlns:sodipodi="http://sodipodi.sourceforge.net/DTD/sodipodi-0.dtd" xmlns="http://www.w3.org/2000/svg" xmlns:svg="http://www.w3.org/2000/svg">
  <defs id="defs1"></defs>
  <sodipodi:namedview id="namedview1" pagecolor="#ffffff" bordercolor="#000000" borderopacity="0.25" inkscape:showpageshadow="2" inkscape:pageopacity="0.0" inkscape:pagecheckerboard="0" inkscape:deskcolor="#d1d1d1">
    <inkscape:page x="0" y="0" inkscape:label="1" id="page1" width="1419.2933" height="371.53333" margin="0" bleed="0"></inkscape:page>
  </sodipodi:namedview>
  <g id="g1" inkscape:groupmode="layer" inkscape:label="1">
    <g id="group-R5">
      <path id="path2" d="M 2361.16,879.078 H 2063.95 V 2405.47 h 463.93 L 2805.4,1205.28 3080.86,2405.47 H 3539.6 V 879.078 H 3242.4 V 1911.52 c 0,29.68 0.34,71.28 1.04,124.79 0.67,53.48 1.03,94.74 1.03,123.74 L 2955.56,879.078 H 2645.93 L 2359.08,2160.05 c 0,-29 0.35,-70.26 1.04,-123.74 0.68,-53.51 1.04,-95.11 1.04,-124.79 V 879.078" style="fill: rgb(255, 255, 255); fill-opacity: 1; fill-rule: nonzero; stroke: none;" transform="matrix(0.13333333,0,0,-0.13333333,0,371.53333)" class="svg-elem-1"></path>
      <path id="path3" d="m 5134.83,2405.47 h 295.14 V 879.078 H 5134.83 V 2405.47" style="fill: rgb(229, 118, 46); fill-opacity: 1; fill-rule: nonzero; stroke: none;" transform="matrix(0.13333333,0,0,-0.13333333,0,371.53333)" class="svg-elem-2"></path>
      <path id="path4" d="M 6245.2,1089.3 V 868.73 l -139.8,-5.179 c -139.46,-4.832 -234.73,19.328 -285.81,72.488 -33.13,33.82 -49.7,85.951 -49.7,156.371 v 694.84 h -157.4 v 210.22 h 157.4 v 314.8 h 292.02 v -314.8 h 183.29 v -210.22 h -183.29 v -596.47 c 0,-46.26 5.86,-75.08 17.6,-86.46 11.73,-11.4 47.64,-17.09 107.7,-17.09 8.97,0 18.46,0.16 28.49,0.52 9.99,0.34 19.83,0.85 29.5,1.55" style="fill: rgb(229, 118, 46); fill-opacity: 1; fill-rule: nonzero; stroke: none;" transform="matrix(0.13333333,0,0,-0.13333333,0,371.53333)" class="svg-elem-3"></path>
      <path id="path5" d="M 8640.9,879.078 H 8273.29 L 8078.6,1217.71 7882.89,879.078 h -358.3 l 385.22,571.622 -368.65,555.05 h 361.4 l 188.47,-327.23 184.33,327.23 H 8626.4 L 8255.68,1455.88 8640.9,879.078" style="fill: rgb(255, 255, 255); fill-opacity: 1; fill-rule: nonzero; stroke: none;" transform="matrix(0.13333333,0,0,-0.13333333,0,371.53333)" class="svg-elem-4"></path>
      <path id="path6" d="m 865.047,2290.5 c -40.961,0 -74.285,-33.33 -74.285,-74.29 0,-40.96 33.324,-74.28 74.285,-74.28 40.965,0 74.289,33.32 74.289,74.28 0,40.96 -33.324,74.29 -74.289,74.29 z m 0,-229.98 c -85.844,0 -155.684,69.85 -155.684,155.69 0,85.84 69.84,155.69 155.684,155.69 85.844,0 155.683,-69.85 155.683,-155.69 0,-85.84 -69.839,-155.69 -155.683,-155.69" style="fill: rgb(255, 255, 255); fill-opacity: 1; fill-rule: nonzero; stroke: none;" transform="matrix(0.13333333,0,0,-0.13333333,0,371.53333)" class="svg-elem-5"></path>
      <path id="path7" d="m 9666.02,2305.86 c -40.97,0 -74.3,-33.33 -74.3,-74.29 0,-40.96 33.33,-74.29 74.3,-74.29 40.97,0 74.29,33.33 74.29,74.29 0,40.96 -33.32,74.29 -74.29,74.29 z m 0,-229.98 c -85.86,0 -155.7,69.85 -155.7,155.69 0,85.84 69.84,155.68 155.7,155.68 85.85,0 155.69,-69.84 155.69,-155.68 0,-85.84 -69.84,-155.69 -155.69,-155.69" style="fill: rgb(255, 255, 255); fill-opacity: 1; fill-rule: nonzero; stroke: none;" transform="matrix(0.13333333,0,0,-0.13333333,0,371.53333)" class="svg-elem-6"></path>
      <path id="path8" d="m 9997.66,2705.06 c -40.95,0 -74.28,-33.33 -74.28,-74.29 0,-40.96 33.33,-74.28 74.28,-74.28 40.94,0 74.34,33.32 74.34,74.28 0,40.96 -33.4,74.29 -74.34,74.29 z m 0,-229.97 c -85.84,0 -155.68,69.84 -155.68,155.68 0,85.85 69.84,155.69 155.68,155.69 85.84,0 155.74,-69.84 155.74,-155.69 0,-85.84 -69.9,-155.68 -155.74,-155.68" style="fill: rgb(229, 118, 46); fill-opacity: 1; fill-rule: nonzero; stroke: none;" transform="matrix(0.13333333,0,0,-0.13333333,0,371.53333)" class="svg-elem-7"></path>
      <path id="path9" d="m 10485.9,2143.1 c -40.9,0 -74.3,-33.32 -74.3,-74.28 0,-40.97 33.4,-74.29 74.3,-74.29 41,0 74.3,33.32 74.3,74.29 0,40.96 -33.3,74.28 -74.3,74.28 z m 0,-229.97 c -85.8,0 -155.7,69.84 -155.7,155.69 0,85.84 69.9,155.68 155.7,155.68 85.9,0 155.7,-69.84 155.7,-155.68 0,-85.85 -69.8,-155.69 -155.7,-155.69" style="fill: rgb(255, 255, 255); fill-opacity: 1; fill-rule: nonzero; stroke: none;" transform="matrix(0.13333333,0,0,-0.13333333,0,371.53333)" class="svg-elem-8"></path>
      <path id="path10" d="m 10129.7,1473.66 c -41,0 -74.3,-33.32 -74.3,-74.29 0,-40.96 33.3,-74.28 74.3,-74.28 41,0 74.3,33.32 74.3,74.28 0,40.97 -33.3,74.29 -74.3,74.29 z m 0,-229.98 c -85.8,0 -155.68,69.85 -155.68,155.69 0,85.85 69.88,155.69 155.68,155.69 85.9,0 155.7,-69.84 155.7,-155.69 0,-85.84 -69.8,-155.69 -155.7,-155.69" style="fill: rgb(229, 118, 46); fill-opacity: 1; fill-rule: nonzero; stroke: none;" transform="matrix(0.13333333,0,0,-0.13333333,0,371.53333)" class="svg-elem-9"></path>
      <path id="path11" d="m 10489,804.23 c -41,0 -74.3,-33.32 -74.3,-74.3 0,-40.969 33.3,-74.289 74.3,-74.289 41,0 74.3,33.32 74.3,74.289 0,40.98 -33.3,74.3 -74.3,74.3 z m 0,-229.992 c -85.8,0 -155.7,69.84 -155.7,155.692 0,85.859 69.9,155.699 155.7,155.699 85.8,0 155.7,-69.84 155.7,-155.699 0,-85.852 -69.9,-155.692 -155.7,-155.692" style="fill: rgb(255, 255, 255); fill-opacity: 1; fill-rule: nonzero; stroke: none;" transform="matrix(0.13333333,0,0,-0.13333333,0,371.53333)" class="svg-elem-10"></path>
      <path id="path12" d="m 9662.95,630.141 c -40.97,0 -74.3,-33.321 -74.3,-74.282 0,-40.968 33.33,-74.289 74.3,-74.289 40.95,0 74.28,33.321 74.28,74.289 0,40.961 -33.33,74.282 -74.28,74.282 z m 0,-229.969 c -85.85,0 -155.7,69.84 -155.7,155.687 0,85.84 69.85,155.68 155.7,155.68 85.83,0 155.68,-69.84 155.68,-155.68 0,-85.847 -69.85,-155.687 -155.68,-155.687" style="fill: rgb(255, 255, 255); fill-opacity: 1; fill-rule: nonzero; stroke: none;" transform="matrix(0.13333333,0,0,-0.13333333,0,371.53333)" class="svg-elem-11"></path>
      <path id="path13" d="m 9991.52,229.969 c -40.97,0 -74.29,-33.321 -74.29,-74.27 0,-40.98 33.32,-74.3006 74.29,-74.3006 40.98,0 74.28,33.3206 74.28,74.3006 0,40.949 -33.3,74.27 -74.28,74.27 z M 9991.52,0 c -85.85,0 -155.69,69.8398 -155.69,155.699 0,85.832 69.84,155.672 155.69,155.672 85.88,0 155.68,-69.84 155.68,-155.672 C 10147.2,69.8398 10077.4,0 9991.52,0" style="fill: rgb(229, 118, 46); fill-opacity: 1; fill-rule: nonzero; stroke: none;" transform="matrix(0.13333333,0,0,-0.13333333,0,371.53333)" class="svg-elem-12"></path>
      <path id="path14" d="m 155.688,1687.08 c -40.965,0 -74.2857,-33.32 -74.2857,-74.28 0,-40.97 33.3207,-74.29 74.2857,-74.29 40.96,0 74.285,33.32 74.285,74.29 0,40.96 -33.325,74.28 -74.285,74.28 z m 0,-229.97 C 69.8438,1457.11 0,1526.95 0,1612.8 c 0,85.84 69.8438,155.68 155.688,155.68 85.843,0 155.683,-69.84 155.683,-155.68 0,-85.85 -69.84,-155.69 -155.683,-155.69" style="fill: rgb(255, 255, 255); fill-opacity: 1; fill-rule: nonzero; stroke: none;" transform="matrix(0.13333333,0,0,-0.13333333,0,371.53333)" class="svg-elem-13"></path>
      <path id="path15" d="m 565.641,1949.64 c -40.965,0 -74.289,-33.32 -74.289,-74.28 0,-40.97 33.324,-74.3 74.289,-74.3 40.961,0 74.293,33.33 74.293,74.3 0,40.96 -33.332,74.28 -74.293,74.28 z m 0,-229.98 c -85.848,0 -155.688,69.84 -155.688,155.7 0,85.84 69.84,155.68 155.688,155.68 85.851,0 155.691,-69.84 155.691,-155.68 0,-85.86 -69.84,-155.7 -155.691,-155.7" style="fill: rgb(229, 118, 46); fill-opacity: 1; fill-rule: nonzero; stroke: none;" transform="matrix(0.13333333,0,0,-0.13333333,0,371.53333)" class="svg-elem-14"></path>
      <path id="path16" d="m 1287.28,1406.1 c -40.96,0 -74.28,-33.32 -74.28,-74.29 0,-40.96 33.32,-74.28 74.28,-74.28 40.96,0 74.29,33.32 74.29,74.28 0,40.97 -33.33,74.29 -74.29,74.29 z m 0,-229.97 c -85.84,0 -155.68,69.84 -155.68,155.68 0,85.85 69.84,155.69 155.68,155.69 85.85,0 155.69,-69.84 155.69,-155.69 0,-85.84 -69.84,-155.68 -155.69,-155.68" style="fill: rgb(229, 118, 46); fill-opacity: 1; fill-rule: nonzero; stroke: none;" transform="matrix(0.13333333,0,0,-0.13333333,0,371.53333)" class="svg-elem-15"></path>
      <path id="path17" d="m 883.477,1111.31 c -40.965,0 -74.297,-33.32 -74.297,-74.29 0,-40.961 33.332,-74.282 74.297,-74.282 40.961,0 74.285,33.321 74.285,74.282 0,40.97 -33.324,74.29 -74.285,74.29 z m 0,-229.97 c -85.856,0 -155.696,69.84 -155.696,155.68 0,85.85 69.84,155.69 155.696,155.69 85.843,0 155.683,-69.84 155.683,-155.69 0,-85.84 -69.84,-155.68 -155.683,-155.68" style="fill: rgb(255, 255, 255); fill-opacity: 1; fill-rule: nonzero; stroke: none;" transform="matrix(0.13333333,0,0,-0.13333333,0,371.53333)" class="svg-elem-16"></path>
      <path id="path18" d="M 1774.01,2175.51 H 980.035 v 81.4 h 793.975 v -81.4" style="fill: rgb(255, 255, 255); fill-opacity: 1; fill-rule: nonzero; stroke: none;" transform="matrix(0.13333333,0,0,-0.13333333,0,371.53333)" class="svg-elem-17"></path>
      <path id="path19" d="m 9520.93,1562.88 h -622.78 v 81.4 h 622.78 v -81.4" style="fill: rgb(255, 255, 255); fill-opacity: 1; fill-rule: nonzero; stroke: none;" transform="matrix(0.13333333,0,0,-0.13333333,0,371.53333)" class="svg-elem-18"></path>
      <path id="path20" d="m 9150.12,1355.61 h -463.87 v 81.4 h 463.87 v -81.4" style="fill: rgb(255, 255, 255); fill-opacity: 1; fill-rule: nonzero; stroke: none;" transform="matrix(0.13333333,0,0,-0.13333333,0,371.53333)" class="svg-elem-19"></path>
      <path id="path21" d="m 10000.7,1355.61 h -746.34 v 81.4 h 746.34 v -81.4" style="fill: rgb(229, 118, 46); fill-opacity: 1; fill-rule: nonzero; stroke: none;" transform="matrix(0.13333333,0,0,-0.13333333,0,371.53333)" class="svg-elem-20"></path>
      <path id="path22" d="m 8910.6,1149.86 h -86.16 v 81.4 h 86.16 v -81.4" style="fill: rgb(255, 255, 255); fill-opacity: 1; fill-rule: nonzero; stroke: none;" transform="matrix(0.13333333,0,0,-0.13333333,0,371.53333)" class="svg-elem-21"></path>
      <path id="path23" d="m 8818.46,1564.42 h -86.15 v 81.4 h 86.15 v -81.4" style="fill: rgb(255, 255, 255); fill-opacity: 1; fill-rule: nonzero; stroke: none;" transform="matrix(0.13333333,0,0,-0.13333333,0,371.53333)" class="svg-elem-22"></path>
      <path id="path24" d="M 1774.01,1834.65 H 696.148 v 81.4 H 1774.01 v -81.4" style="fill: rgb(229, 118, 46); fill-opacity: 1; fill-rule: nonzero; stroke: none;" transform="matrix(0.13333333,0,0,-0.13333333,0,371.53333)" class="svg-elem-23"></path>
      <path id="path25" d="M 1774.01,1564.42 H 281.586 v 81.4 H 1774.01 v -81.4" style="fill: rgb(255, 255, 255); fill-opacity: 1; fill-rule: nonzero; stroke: none;" transform="matrix(0.13333333,0,0,-0.13333333,0,371.53333)" class="svg-elem-24"></path>
      <path id="path26" d="m 1777.08,1297.26 h -377.71 v 81.4 h 377.71 v -81.4" style="fill: rgb(229, 118, 46); fill-opacity: 1; fill-rule: nonzero; stroke: none;" transform="matrix(0.13333333,0,0,-0.13333333,0,371.53333)" class="svg-elem-25"></path>
      <path id="path27" d="M 1774.01,984.039 H 980.035 v 81.401 h 793.975 v -81.401" style="fill: rgb(255, 255, 255); fill-opacity: 1; fill-rule: nonzero; stroke: none;" transform="matrix(0.13333333,0,0,-0.13333333,0,371.53333)" class="svg-elem-26"></path>
      <path id="path28" d="m 9206.58,1775.73 h -206.93 v 81.4 h 204.21 c 16.23,1.39 65.23,10.14 65.23,63.71 v 135.11 h 81.4 v -135.11 c 0,-108.09 -93.35,-142.13 -142.72,-145.03 l -1.19,-0.08" style="fill: rgb(255, 255, 255); fill-opacity: 1; fill-rule: nonzero; stroke: none;" transform="matrix(0.13333333,0,0,-0.13333333,0,371.53333)" class="svg-elem-27"></path>
      <path id="path29" d="m 9350.49,1992.23 h -81.4 v 135.13 c 0,106.46 86.79,145.1 145.13,145.1 h 132.03 v -81.4 h -132.03 c -18.91,-0.36 -63.73,-7.3 -63.73,-63.7 v -135.13" style="fill: rgb(255, 255, 255); fill-opacity: 1; fill-rule: nonzero; stroke: none;" transform="matrix(0.13333333,0,0,-0.13333333,0,371.53333)" class="svg-elem-28"></path>
      <path id="path30" d="m 9546.25,520.531 -208.13,0.071 c -49.36,2.91 -142.72,36.949 -142.72,145.039 v 135.121 h 81.4 V 665.641 c 0,-53.34 48.56,-62.243 65.3,-63.7 h 204.15 v -81.41" style="fill: rgb(255, 255, 255); fill-opacity: 1; fill-rule: nonzero; stroke: none;" transform="matrix(0.13333333,0,0,-0.13333333,0,371.53333)" class="svg-elem-29"></path>
      <path id="path31" d="m 9276.8,737.039 h -81.4 v 135.109 c 0,56.411 -44.8,63.34 -64.07,63.704 h -131.68 v 81.398 h 132.05 c 58.33,0 145.1,-38.648 145.1,-145.102 V 737.039" style="fill: rgb(255, 255, 255); fill-opacity: 1; fill-rule: nonzero; stroke: none;" transform="matrix(0.13333333,0,0,-0.13333333,0,371.53333)" class="svg-elem-30"></path>
      <path id="path32" d="m 10366,776.898 c -3.2,2.422 -317.9,243.502 -423.36,322.122 -70.93,52.85 -151.26,50.29 -151.98,50.3 l -1.81,-0.05 h -776.92 v 81.41 h 776.19 c 12.97,0.36 112.51,1.16 203.17,-66.4 105.91,-78.93 421.01,-320.339 424.21,-322.768 l -49.5,-64.614" style="fill: rgb(255, 255, 255); fill-opacity: 1; fill-rule: nonzero; stroke: none;" transform="matrix(0.13333333,0,0,-0.13333333,0,371.53333)" class="svg-elem-31"></path>
      <path id="path33" d="m 9702.87,1561.58 v 81.4 h 80.57 c 0.4,0.01 87.1,1.94 159.2,55.69 105.46,78.61 420.16,319.68 423.36,322.11 l 49.5,-64.62 c -3.2,-2.43 -318.3,-243.83 -424.21,-322.76 -94.06,-70.1 -202.93,-71.78 -207.51,-71.82 h -80.91" style="fill: rgb(255, 255, 255); fill-opacity: 1; fill-rule: nonzero; stroke: none;" transform="matrix(0.13333333,0,0,-0.13333333,0,371.53333)" class="svg-elem-32"></path>
      <path id="path34" d="m 9681.74,1772.31 c -93.39,0 -219.05,0.29 -239.99,0.35 l 0.19,81.4 c 127.6,-0.3 323.32,-0.58 339.36,-0.02 1.75,0.06 175.66,7.87 175.66,158.92 v 516.67 h 81.44 v -516.67 c 0,-189.82 -183.56,-237.81 -254.27,-240.28 -8.14,-0.29 -50.24,-0.37 -102.39,-0.37" style="fill: rgb(229, 118, 46); fill-opacity: 1; fill-rule: nonzero; stroke: none;" transform="matrix(0.13333333,0,0,-0.13333333,0,371.53333)" class="svg-elem-33"></path>
      <path id="path35" d="m 10038.4,262.25 h -81.44 v 516.648 c 0,151.09 -173.9,158.883 -175.66,158.942 -16.04,0.57 -211.72,0.301 -339.36,-0.031 l -0.19,81.401 c 32.64,0.06 319.64,0.76 342.39,-0.03 70.7,-2.45 254.26,-50.399 254.26,-240.282 V 262.25" style="fill: rgb(229, 118, 46); fill-opacity: 1; fill-rule: nonzero; stroke: none;" transform="matrix(0.13333333,0,0,-0.13333333,0,371.53333)" class="svg-elem-34"></path>
      <path id="path36" d="m 4533.97,1632.85 v -239.1 c 0,-72.49 -9.68,-130.83 -29,-175.01 -37.28,-81.47 -106.32,-122.19 -207.11,-122.19 -36.49,0 -67.16,6.43 -92.52,18.75 L 4052.28,874.25 c 43.45,-13.25 92.77,-20.02 148.24,-20.02 57.99,0 108.56,7.598 151.71,22.782 43.13,15.187 87.85,43.5 134.1,84.918 15.18,13.109 28.31,28.289 39.35,45.56 11.04,17.25 17.95,27.61 20.71,31.07 V 879.078 h 286.85 V 2007.82 h -61.18 l -238.09,-374.97" style="fill: rgb(229, 118, 46); fill-opacity: 1; fill-rule: nonzero; stroke: none;" transform="matrix(0.13333333,0,0,-0.13333333,0,371.53333)" class="svg-elem-35"></path>
      <path id="path37" d="M 4673.08,2007.82 H 4533.97 V 1788.74 Z" style="fill: rgb(255, 255, 255); fill-opacity: 1; fill-rule: nonzero; stroke: none;" transform="matrix(0.13333333,0,0,-0.13333333,0,371.53333)" class="svg-elem-36"></path>
      <path id="path38" d="m 3975.05,908.5 168.88,265.98 c -1.47,2.71 -3.16,5.16 -4.5,8.02 -15.19,32.43 -22.78,80.77 -22.78,144.97 v 680.35 h -302.38 v -680.35 c 0,-129.1 16.21,-226.78 48.67,-293.05 26.2,-54.279 63.64,-96.17 112.11,-125.92" style="fill: rgb(255, 255, 255); fill-opacity: 1; fill-rule: nonzero; stroke: none;" transform="matrix(0.13333333,0,0,-0.13333333,0,371.53333)" class="svg-elem-37"></path>
      <path id="path39" d="m 7330.69,1818.32 c -27.52,42.63 -59.33,78.61 -95.12,108.4 l -151.61,-238.76 c 20.26,-35.45 32.22,-79.19 35.48,-131.63 h -119.06 l -123.62,-194.68 h 549.2 c 1.37,97.34 -1.74,171.9 -9.32,223.67 -13.13,88.36 -41.78,166.02 -85.95,233" style="fill: rgb(255, 255, 255); fill-opacity: 1; fill-rule: nonzero; stroke: none;" transform="matrix(0.13333333,0,0,-0.13333333,0,371.53333)" class="svg-elem-38"></path>
      <path id="path40" d="m 6520.89,980.57 c 3.26,-2.75 6.57,-5.308 9.86,-7.968 l 153.75,242.138 c -18.51,40.18 -28.94,89.06 -31.06,146.91 h 124.34 l 123.61,194.68 h -240.7 c 9.66,73.17 33.3,131.16 70.94,173.97 37.62,42.79 90.61,64.2 158.95,64.2 52.18,0 97.23,-14.15 135.37,-42.01 l 140.46,221.21 c -7.28,3.93 -14.58,7.82 -22.12,11.34 -75.26,35.21 -159.82,52.82 -253.71,52.82 -158.1,0 -286.68,-52.13 -385.75,-156.37 -99.06,-104.26 -148.59,-254.06 -148.59,-449.43 0,-208.49 54.89,-359 164.65,-451.49" style="fill: rgb(229, 118, 46); fill-opacity: 1; fill-rule: nonzero; stroke: none;" transform="matrix(0.13333333,0,0,-0.13333333,0,371.53333)" class="svg-elem-39"></path>
      <path id="path41" d="m 7055.23,1132.79 c -37.98,-34.52 -87.33,-51.78 -148.08,-51.78 -57.3,0 -106.33,14.15 -147.05,42.46 -8.15,5.55 -15.8,11.64 -23.02,18.19 L 6599.1,924.352 c 90.58,-54.954 191.15,-82.551 301.84,-82.551 173.97,0 309.27,54.89 405.93,164.659 62.13,69.03 96.99,137.02 104.59,204 h -301.34 c -15.89,-33.14 -34.18,-59.03 -54.89,-77.67" style="fill: rgb(255, 255, 255); fill-opacity: 1; fill-rule: nonzero; stroke: none;" transform="matrix(0.13333333,0,0,-0.13333333,0,371.53333)" class="svg-elem-40"></path>
    </g>
  </g>
</svg>