<svg xmlns="http://www.w3.org/2000/svg" fill="none" viewBox="0 0 93 48" height="48" width="93">
<g clip-path="url(#clip0_23920_234757)">
<path fill="#111111" d="M27.4301 28.6428C26.337 29.3974 12.6308 38.8967 0.0507812 47.6039L92.5064 47.6048L84.2749 31.0505C85.2328 27.2704 85.6489 24.6549 85.6489 24.6549C85.8731 23.4752 85.7705 21.3785 78.6845 19.8102C77.2402 16.8945 68.9397 0.10083 68.9397 0.10083L65.4892 2.48355C65.4892 2.48355 60.7148 5.78001 56.9815 8.3577C55.1162 5.36726 51.8062 3.3671 48.0293 3.3671C43.4908 3.3671 39.0911 6.34403 38.1071 10.7476L25.7666 10.7454L22.965 23.5509H28.5168L27.4301 28.6428Z"/>
<path fill="#E63027" d="M54.8894 14.2021C54.8953 14.0865 54.9065 13.9749 54.9065 13.8589C54.9065 10.0329 51.806 6.93164 47.9784 6.93164C44.1498 6.93164 41.0488 10.0329 41.0488 13.8589C41.0488 16.9284 43.0429 19.5255 45.8053 20.4374L54.8894 14.2021Z"/>
<path fill="white" d="M86.5557 43.8526L80.3014 31.2299L81.5794 25.87C81.7884 24.9977 81.216 24.3143 79.8605 23.8172C78.9058 23.4781 77.721 23.2734 76.3241 23.1977L67.5061 5.40479L38.8157 25.2148L40.0325 20.0463H45.5536L46.8145 14.391H28.531L27.2741 20.0463H32.9213L30.3262 31.0761L11.8242 43.853M75.4513 26.1481L73.3302 35.042C73.2303 35.4646 72.702 35.6743 71.7536 35.6743C70.8173 35.6743 70.3999 35.4646 70.5008 35.042L72.6183 26.1481C72.7218 25.7286 73.2357 25.5194 74.1706 25.5194C75.1244 25.5194 75.5495 25.7286 75.4513 26.1481ZM35.966 37.318L38.2942 27.4309L41.4677 25.2283L38.5863 37.3189H45.4608L48.5839 24.2265H42.9119L66.8265 7.63754L74.4988 23.1793C72.675 23.2198 71.0398 23.442 69.6068 23.8624C67.8695 24.3603 66.9058 25.0268 66.7022 25.87L64.4366 35.3703C64.2434 36.1807 64.8621 36.8246 66.2915 37.3069C67.5871 37.7584 69.2434 37.9854 71.2537 37.9854C73.2843 37.9854 75.042 37.7584 76.5348 37.3069C78.2033 36.7929 79.1395 36.1093 79.3422 35.2541L79.707 33.7268L83.9246 42.2705H16.9022L29.7977 33.3253L28.8588 37.318H35.966ZM49.5409 37.4247C50.7302 37.8606 52.3046 38.0777 54.2631 38.0777C56.3306 38.0777 58.1774 37.8377 59.8008 37.3531C61.5792 36.8409 62.5641 36.1651 62.764 35.3223L63.1054 33.8997C63.3287 32.9497 62.7965 31.9851 61.5031 31.0045C61.2604 30.8154 60.0107 30.0642 57.7572 28.7409C56.422 27.9476 55.8077 27.3086 55.9225 26.8263L56.0847 26.1481C56.1847 25.7286 56.7003 25.5194 57.6343 25.5194C58.589 25.5194 59.0123 25.7286 58.9173 26.1481L58.3287 28.6004H64.4204L65.0702 25.87C65.2782 24.9977 64.7041 24.3143 63.3526 23.8172C62.1277 23.3813 60.5227 23.1617 58.5476 23.1617C56.4994 23.1617 54.6729 23.3963 53.0697 23.8624C51.3359 24.3603 50.3686 25.0268 50.1641 25.87L49.8606 27.1521C49.639 28.0863 50.1641 29.0374 51.4485 30C52.6842 30.764 53.9168 31.517 55.1385 32.2661C56.4724 33.0769 57.0817 33.7617 56.9655 34.3203L56.7034 35.5337C56.6332 35.8303 56.2468 35.9789 55.5497 35.9789C55.1169 35.9789 54.7269 35.9078 54.3865 35.7672C54.0375 35.6256 53.8961 35.4396 53.9528 35.2061L54.5819 32.5701H48.5163L47.8413 35.3946C47.6359 36.2637 48.202 36.9415 49.5409 37.4247Z"/>
</g>
<defs>
<clipPath id="clip0_23920_234757">
<rect fill="white" height="48" width="92.6897"/>
</clipPath>
</defs>
</svg>